<svg width="288" height="48" fill="none" xmlns="http://www.w3.org/2000/svg"><mask id="a" style="mask-type:luminance" maskUnits="userSpaceOnUse" x="16" y="11" width="15" height="25"><path fill-rule="evenodd" clip-rule="evenodd" d="M23.463 11.413c-4.924 0-7.448 1.75-7.462 5.6v10.812a7.488 7.488 0 0 0 1.054 3.967l-.042.025c.113.198.238.388.375.571.166.22.264.324.264.324 1.594 1.764 3.833 2.91 6.283 3.215 0 0 5.159-1.089 6.795-4.07-.46.06-.923.095-1.387.103-1.73.195-3.347-.835-3.786-2.411l-.084-.26c0-.168-.083-.337-.11-.518a12 12 0 0 1-.125-1.763v-8.102h2.538v-4.278H25.21v-3.215h-1.747Z" fill="#fff"/></mask><g mask="url(#a)"><path fill-rule="evenodd" clip-rule="evenodd" d="M9.065 42.409h28.6V4.93h-28.6v37.478Z" fill="#fff"/></g><mask id="b" style="mask-type:luminance" maskUnits="userSpaceOnUse" x="26" y="15" width="16" height="22"><path fill-rule="evenodd" clip-rule="evenodd" d="m31.091 17.776-.093.169v.065l-.133.324a5.691 5.691 0 0 0-.186.649 5.695 5.695 0 0 0 0 2.413c.398 1.803.81 3.217 1.089 4.644.248 1.182.368 2.387.358 3.593.003.436-.042.871-.133 1.297-.464 2.322-2.31 4.178-5.642 5.345l.08.311h2.801c3.61 0 7.7-.777 9.825-3.126.123-.13.24-.27.344-.415.077-.1.148-.203.213-.311a5.677 5.677 0 0 0 .903-3.192 26.192 26.192 0 0 0-.637-4.294l-.067-.324v-.298c-.252-1.298-.491-2.283-.531-2.594a4.101 4.101 0 0 1 0-1.052 1.585 1.585 0 0 1 0-.26c.279-1.089 1.328-1.426 2.655-1.4v-4.281h-5.642a5.957 5.957 0 0 0-.377-.013c-1.989 0-3.838 1.044-4.827 2.75Z" fill="#fff"/></mask><g mask="url(#b)"><path fill-rule="evenodd" clip-rule="evenodd" d="M19.713 43.073h28.863V8.54H19.713v34.533Z" fill="#fff"/></g><path d="M64.39 18.125V29.5h-2.336V18.125h2.336Zm3.5 0v1.836H58.61v-1.836h9.281Zm4.352 11.531c-.657 0-1.245-.104-1.766-.312a3.878 3.878 0 0 1-1.328-.883 3.924 3.924 0 0 1-.828-1.305 4.393 4.393 0 0 1-.29-1.593v-.313c0-.64.092-1.227.274-1.758.183-.531.443-.992.781-1.383.344-.39.76-.69 1.25-.898.49-.214 1.042-.32 1.657-.32.599 0 1.13.099 1.593.297.464.197.852.479 1.165.843.317.365.557.802.718 1.313.162.505.242 1.067.242 1.687v.938h-6.718v-1.5h4.507v-.172a1.95 1.95 0 0 0-.171-.836 1.326 1.326 0 0 0-.5-.594c-.224-.146-.51-.219-.86-.219-.297 0-.552.066-.765.196a1.51 1.51 0 0 0-.524.547c-.13.234-.229.51-.297.828a5.267 5.267 0 0 0-.093 1.031v.313c0 .338.046.65.14.937.1.287.237.534.414.742.183.209.401.37.656.485.26.114.555.171.883.171a2.74 2.74 0 0 0 1.133-.234c.354-.161.659-.404.914-.727l1.094 1.188c-.177.255-.42.5-.727.734a3.879 3.879 0 0 1-1.093.578 4.511 4.511 0 0 1-1.461.22Zm9.312-2.062v-3.766c0-.27-.044-.502-.133-.695a.989.989 0 0 0-.414-.461c-.182-.11-.419-.164-.71-.164-.25 0-.467.044-.65.133a.94.94 0 0 0-.42.367 1.015 1.015 0 0 0-.15.555h-2.25c0-.36.084-.701.25-1.024.167-.323.41-.607.727-.852.318-.25.695-.445 1.133-.585.443-.141.938-.211 1.484-.211.657 0 1.24.109 1.75.328.51.218.912.547 1.203.984.297.438.446.985.446 1.64v3.618c0 .463.029.844.086 1.14.057.292.14.547.25.766v.133h-2.274a3.25 3.25 0 0 1-.25-.86 7.08 7.08 0 0 1-.078-1.046Zm.297-3.242.016 1.273h-1.258c-.297 0-.555.034-.774.102a1.44 1.44 0 0 0-.539.289c-.14.12-.244.26-.312.422a1.46 1.46 0 0 0-.094.53c0 .194.044.368.133.524.089.151.216.271.383.36.166.083.362.125.586.125.338 0 .632-.068.882-.204.25-.135.443-.302.579-.5.14-.197.213-.385.218-.562l.594.953a3.857 3.857 0 0 1-.344.664 3.1 3.1 0 0 1-.539.649 2.782 2.782 0 0 1-.789.492c-.307.125-.672.187-1.094.187a3.285 3.285 0 0 1-1.46-.32 2.663 2.663 0 0 1-1.032-.898 2.359 2.359 0 0 1-.375-1.313c0-.443.084-.836.25-1.18.167-.343.412-.633.735-.867.328-.24.737-.42 1.226-.539.49-.125 1.058-.187 1.703-.187h1.305Zm5.953-1.555V29.5h-2.258v-8.453h2.118l.14 1.75Zm-.312 2.18h-.625c0-.589.07-1.13.21-1.625.147-.5.357-.933.633-1.297.282-.37.628-.657 1.04-.86.411-.203.888-.304 1.43-.304.374 0 .718.057 1.03.172.313.109.581.283.805.523.23.234.406.542.531.922.125.375.188.825.188 1.351V29.5h-2.25v-5.39c0-.386-.052-.683-.156-.891a.887.887 0 0 0-.446-.438 1.668 1.668 0 0 0-.68-.125c-.291 0-.546.06-.765.18-.213.12-.39.286-.531.5-.14.208-.245.453-.313.734a3.865 3.865 0 0 0-.101.907Zm5.03-.258-.804.101c0-.552.068-1.065.203-1.539.141-.474.347-.89.618-1.25.276-.36.617-.638 1.023-.836.406-.203.875-.304 1.406-.304.406 0 .776.06 1.11.18.333.114.617.299.851.554.24.25.422.578.547.984.13.407.195.904.195 1.493V29.5h-2.257v-5.398c0-.391-.052-.688-.157-.891a.82.82 0 0 0-.437-.43 1.646 1.646 0 0 0-.672-.125c-.27 0-.508.055-.711.164-.203.104-.372.25-.508.438a2.004 2.004 0 0 0-.305.656 3.012 3.012 0 0 0-.101.805Zm12.954 1.804c0-.203-.031-.385-.094-.546a1.026 1.026 0 0 0-.328-.454 2.907 2.907 0 0 0-.679-.414 9.668 9.668 0 0 0-1.133-.422 14.276 14.276 0 0 1-1.469-.562 6.037 6.037 0 0 1-1.219-.727 3.272 3.272 0 0 1-.828-.976c-.198-.37-.297-.8-.297-1.29 0-.473.104-.903.313-1.288.208-.39.5-.724.875-1a4.15 4.15 0 0 1 1.328-.649 6.012 6.012 0 0 1 1.695-.226c.839 0 1.57.15 2.195.453.625.302 1.11.716 1.454 1.242.349.526.523 1.128.523 1.805h-2.328c0-.334-.07-.625-.211-.875a1.425 1.425 0 0 0-.625-.602c-.276-.146-.625-.219-1.047-.219-.406 0-.745.063-1.016.188-.27.12-.474.284-.609.492a1.214 1.214 0 0 0-.203.688c0 .192.047.367.141.523.099.156.244.302.437.438.193.135.43.263.711.382.281.12.607.237.977.352.619.187 1.164.398 1.632.633.474.234.87.497 1.188.789.318.291.557.622.719.992.161.37.242.79.242 1.258 0 .495-.097.937-.289 1.328-.193.39-.472.721-.836.992-.365.271-.8.477-1.305.617-.505.14-1.07.211-1.695.211a6.43 6.43 0 0 1-1.664-.218 5.04 5.04 0 0 1-1.492-.68 3.424 3.424 0 0 1-1.063-1.156c-.266-.47-.398-1.024-.398-1.665h2.351c0 .355.055.654.164.899.11.245.263.443.461.594.203.15.443.26.719.328.281.068.588.101.922.101.406 0 .739-.057 1-.172.265-.114.461-.273.586-.476.13-.203.195-.432.195-.688Zm6.305 2.024 2.242-7.5h2.414l-3.398 9.726a5.28 5.28 0 0 1-.297.688c-.12.245-.284.477-.492.695a2.307 2.307 0 0 1-.774.547c-.307.14-.685.211-1.133.211a2.86 2.86 0 0 1-.523-.039 9.148 9.148 0 0 1-.485-.11v-1.648h.18c.063.005.123.008.18.008.297 0 .539-.034.726-.102.188-.067.339-.171.454-.312.114-.135.205-.313.273-.531l.633-1.633Zm-.938-7.5 1.836 6.125.321 2.383-1.532.164-3.039-8.672h2.414Zm11.063 6.117a.73.73 0 0 0-.141-.437c-.094-.13-.268-.25-.523-.36-.25-.114-.612-.219-1.086-.312a8.488 8.488 0 0 1-1.196-.352 4.16 4.16 0 0 1-.953-.523 2.283 2.283 0 0 1-.625-.72 1.999 1.999 0 0 1-.226-.96c0-.354.075-.688.226-1 .157-.313.378-.588.664-.828a3.145 3.145 0 0 1 1.063-.57c.422-.141.896-.211 1.422-.211.734 0 1.364.117 1.89.351.532.235.938.557 1.219.969.287.406.43.87.43 1.39h-2.25c0-.218-.047-.413-.141-.585a.924.924 0 0 0-.422-.414c-.187-.105-.432-.157-.734-.157-.25 0-.466.045-.648.133a.99.99 0 0 0-.422.344.825.825 0 0 0-.141.469c0 .13.026.247.078.351.057.1.149.19.274.274.125.083.286.161.484.234.203.068.453.13.75.188.609.125 1.154.289 1.633.492.479.198.859.468 1.14.812.282.339.422.784.422 1.336 0 .375-.083.719-.25 1.031a2.485 2.485 0 0 1-.718.82c-.313.23-.688.41-1.125.54-.433.125-.92.187-1.461.187-.787 0-1.454-.14-2-.422-.542-.28-.954-.638-1.235-1.07-.276-.437-.414-.885-.414-1.344h2.133c.01.308.088.555.234.742.151.188.341.323.571.407.234.083.487.125.757.125.292 0 .534-.04.727-.117.193-.084.339-.193.438-.329a.793.793 0 0 0 .156-.484Zm7.789-6.117v1.594h-4.922v-1.594h4.922Zm-3.703-2.086h2.25v7.992c0 .245.031.432.093.563.068.13.167.221.297.273.131.047.295.07.493.07.14 0 .265-.005.375-.015.114-.016.21-.032.289-.047l.007 1.656a4.21 4.21 0 0 1-.625.149 4.64 4.64 0 0 1-.742.054c-.495 0-.927-.08-1.297-.242a1.783 1.783 0 0 1-.843-.797c-.198-.364-.297-.844-.297-1.437v-8.22Zm8.875 10.695c-.657 0-1.245-.104-1.766-.312a3.88 3.88 0 0 1-1.328-.883 3.933 3.933 0 0 1-.828-1.305 4.386 4.386 0 0 1-.289-1.593v-.313c0-.64.091-1.227.273-1.758.182-.531.443-.992.781-1.383a3.44 3.44 0 0 1 1.25-.898c.49-.214 1.042-.32 1.657-.32.599 0 1.13.099 1.593.297.464.197.852.479 1.165.843.317.365.557.802.718 1.313.162.505.242 1.067.242 1.687v.938h-6.718v-1.5h4.508v-.172c0-.313-.058-.591-.172-.836a1.33 1.33 0 0 0-.5-.594c-.224-.146-.511-.219-.86-.219-.297 0-.552.066-.765.196-.214.13-.388.312-.524.547-.13.234-.229.51-.297.828a5.308 5.308 0 0 0-.093 1.031v.313c0 .338.046.65.14.937.099.287.237.534.414.742.183.209.401.37.657.485.26.114.554.171.882.171a2.74 2.74 0 0 0 1.133-.234c.354-.161.659-.404.914-.727l1.094 1.188c-.177.255-.419.5-.727.734a3.874 3.874 0 0 1-1.093.578 4.511 4.511 0 0 1-1.461.22Zm7-6.86V29.5h-2.258v-8.453h2.117l.141 1.75Zm-.313 2.18h-.625c0-.588.071-1.13.211-1.624.146-.5.357-.933.633-1.297.281-.37.628-.657 1.039-.86.411-.203.888-.304 1.43-.304.375 0 .718.057 1.031.172.312.109.581.283.805.523.229.234.406.542.531.922.125.375.187.825.187 1.351V29.5h-2.25v-5.39c0-.386-.052-.683-.156-.891a.885.885 0 0 0-.445-.438 1.67 1.67 0 0 0-.68-.125c-.292 0-.547.06-.765.18-.214.12-.391.286-.532.5-.14.208-.245.453-.312.734a3.849 3.849 0 0 0-.102.907Zm5.031-.257-.804.101c0-.552.067-1.065.203-1.539.141-.474.346-.89.617-1.25a2.84 2.84 0 0 1 1.024-.836c.406-.203.875-.304 1.406-.304.406 0 .776.06 1.109.18.333.114.617.299.852.554.239.25.422.578.547.984.13.407.195.904.195 1.493V29.5h-2.258v-5.398c0-.391-.052-.688-.156-.891a.82.82 0 0 0-.438-.43 1.644 1.644 0 0 0-.672-.125c-.27 0-.507.055-.71.164-.204.104-.373.25-.508.438a1.999 1.999 0 0 0-.305.656 3 3 0 0 0-.102.805Zm13.547 4.781h-2.398l.226-1.227 2.211.008c.829 0 1.545-.18 2.149-.539a4.204 4.204 0 0 0 1.469-1.476 5.854 5.854 0 0 0 .734-2.11l.102-.703c.062-.5.07-.99.023-1.469a3.564 3.564 0 0 0-.352-1.297 2.289 2.289 0 0 0-.843-.937c-.37-.24-.847-.367-1.43-.383l-2.578-.008.219-1.234 2.39.008c.761.015 1.412.172 1.953.469.547.291.987.684 1.321 1.18.338.494.567 1.06.687 1.695.125.635.146 1.302.063 2l-.094.68a7.05 7.05 0 0 1-.649 2.14 5.955 5.955 0 0 1-1.242 1.695 5.463 5.463 0 0 1-1.758 1.117c-.666.26-1.401.391-2.203.391Zm.368-11.375L158.523 29.5h-1.477l1.977-11.375h1.477Zm11.632 9.93.703-4.367a1.725 1.725 0 0 0-.093-.852 1.116 1.116 0 0 0-.477-.57c-.219-.136-.495-.209-.828-.22a2.434 2.434 0 0 0-.859.142 1.969 1.969 0 0 0-.719.445 1.426 1.426 0 0 0-.399.75l-1.406.008c.037-.422.169-.79.399-1.102.229-.318.515-.58.859-.789a3.88 3.88 0 0 1 1.109-.469 4.307 4.307 0 0 1 1.157-.148c.567.01 1.06.133 1.476.367.422.23.74.552.953.969.214.416.292.916.235 1.5l-.649 3.937a6.975 6.975 0 0 0-.086.867c-.005.287.029.568.102.844l-.016.133-1.429.008a3.077 3.077 0 0 1-.086-.727 6.73 6.73 0 0 1 .054-.726Zm.868-3.68-.165 1.016-1.335-.008c-.282 0-.579.02-.891.062-.313.042-.609.12-.891.235a1.879 1.879 0 0 0-.711.5c-.192.213-.31.492-.351.836-.031.28.002.526.101.734.104.203.261.362.469.477.208.114.451.174.727.18a2.63 2.63 0 0 0 1.062-.212c.349-.146.654-.354.914-.625.261-.27.44-.583.539-.937l.516.695a2.863 2.863 0 0 1-.484.953c-.224.287-.49.534-.797.742-.302.209-.628.37-.977.485-.349.114-.698.17-1.047.164a2.862 2.862 0 0 1-1.289-.32 2.338 2.338 0 0 1-.906-.852c-.219-.37-.313-.8-.281-1.29.031-.536.172-.986.422-1.35.25-.365.57-.657.96-.876a4.49 4.49 0 0 1 1.297-.468 6.73 6.73 0 0 1 1.391-.149l1.727.008Zm7.39-3.328-.195 1.11h-4.445l.195-1.11h4.445Zm-2.586-2.055h1.406l-1.429 8.43c-.016.182-.011.346.015.492a.596.596 0 0 0 .188.352c.099.083.25.127.453.132.115 0 .227-.007.336-.023.115-.02.229-.04.344-.055l-.102 1.188c-.167.047-.338.08-.515.101a2.866 2.866 0 0 1-.516.032c-.432-.006-.771-.115-1.016-.328a1.61 1.61 0 0 1-.5-.829 3.132 3.132 0 0 1-.078-1.086l1.414-8.406Zm7.86 9.063.703-4.367a1.736 1.736 0 0 0-.094-.852 1.116 1.116 0 0 0-.477-.57c-.218-.136-.494-.209-.828-.22a2.437 2.437 0 0 0-.859.142 1.969 1.969 0 0 0-.719.445 1.418 1.418 0 0 0-.398.75l-1.407.008a2.14 2.14 0 0 1 .399-1.102c.229-.318.516-.58.859-.789.344-.213.714-.37 1.11-.469a4.295 4.295 0 0 1 1.156-.148c.568.01 1.06.133 1.476.367.422.23.74.552.954.969.213.416.291.916.234 1.5l-.648 3.937a6.79 6.79 0 0 0-.086.867c-.006.287.028.568.101.844l-.015.133-1.43.008a3.13 3.13 0 0 1-.086-.727c.005-.244.023-.487.055-.726Zm.867-3.68-.164 1.016-1.336-.008c-.281 0-.578.02-.891.062-.312.042-.609.12-.89.235a1.864 1.864 0 0 0-.711.5c-.193.213-.31.492-.352.836-.031.28.003.526.102.734.104.203.26.362.468.477.209.114.451.174.727.18a2.63 2.63 0 0 0 1.062-.212c.349-.146.654-.354.914-.625.261-.27.441-.583.54-.937l.515.695c-.099.344-.26.662-.484.953-.224.287-.49.534-.797.742-.302.209-.628.37-.977.485-.349.114-.698.17-1.047.164a2.862 2.862 0 0 1-1.289-.32 2.338 2.338 0 0 1-.906-.852c-.219-.37-.312-.8-.281-1.29.031-.536.172-.986.422-1.35.25-.365.57-.657.961-.876a4.479 4.479 0 0 1 1.297-.468 6.713 6.713 0 0 1 1.39-.149l1.727.008Zm5.976-6.875-2.086 12h-1.414l2.086-12h1.414Zm-1.601 7.453-.578-.015c.073-.506.205-1 .398-1.485.198-.49.456-.93.774-1.32.322-.39.705-.698 1.148-.922.448-.23.958-.336 1.531-.32.453.01.831.099 1.133.265.307.162.547.383.719.664.172.282.286.607.344.977.057.364.062.752.015 1.164l-.922 5.539h-1.422l.938-5.563a2.78 2.78 0 0 0-.039-.914 1.09 1.09 0 0 0-.391-.656c-.198-.166-.484-.255-.859-.265a2.194 2.194 0 0 0-1.07.226 2.685 2.685 0 0 0-.836.664 3.752 3.752 0 0 0-.579.93 4.427 4.427 0 0 0-.304 1.031Zm12.023 2.516 1.11-6.422h1.421l-1.468 8.453h-1.352l.289-2.031Zm.531-1.703.579-.024a7.166 7.166 0 0 1-.36 1.516 4.399 4.399 0 0 1-.703 1.265 3.067 3.067 0 0 1-1.094.86c-.432.203-.945.297-1.539.281-.463-.016-.851-.11-1.164-.281a1.942 1.942 0 0 1-.726-.695 2.684 2.684 0 0 1-.352-1 4.728 4.728 0 0 1-.023-1.188l.914-5.453h1.414l-.914 5.476c-.021.23-.024.456-.008.68.016.219.062.42.141.602.078.182.197.33.359.445.167.11.385.17.656.18.563.02 1.039-.084 1.43-.313.39-.234.7-.557.93-.969.229-.411.382-.872.46-1.382Zm4.735-8.266h1.422l-1.813 10.445-.39 1.555h-1.305l2.086-12Zm5.609 7.656-.015.164a7.642 7.642 0 0 1-.375 1.547 5.3 5.3 0 0 1-.735 1.414 3.54 3.54 0 0 1-1.133 1.024c-.442.255-.963.375-1.562.36-.542-.011-.998-.136-1.367-.376a2.599 2.599 0 0 1-.875-.937c-.214-.391-.36-.82-.438-1.29a6.226 6.226 0 0 1-.07-1.421l.086-.72c.088-.504.234-1 .437-1.483.203-.485.466-.922.789-1.313.323-.39.706-.698 1.149-.922.443-.229.95-.336 1.523-.32.578.015 1.047.156 1.407.422.364.265.64.61.828 1.03.187.418.304.873.351 1.368.052.495.052.98 0 1.453Zm-1.437.157.023-.172c.037-.313.05-.644.039-.993a3.354 3.354 0 0 0-.172-.984 1.565 1.565 0 0 0-.5-.75c-.229-.198-.549-.302-.961-.312a2.226 2.226 0 0 0-.929.164 2.575 2.575 0 0 0-.782.492c-.234.208-.434.45-.601.726-.162.271-.284.558-.367.86l-.305 1.898c-.01.375.063.73.219 1.063.156.328.377.596.664.804.291.203.63.313 1.015.328.433.016.805-.067 1.118-.25.312-.187.573-.434.781-.742.213-.312.38-.656.5-1.03.125-.376.211-.743.258-1.102Z" fill="#fff"/></svg>